# xmcd
#
# Track frame offsets:
#  150
#  19275
#  29853
#  42396
#  53661
#  68763
#  88662
#  101547
#  124062
#  135339
#  148200
#  163332
#  179796
#  189654
#  201552
#
# Disc length: 2854 seconds
#
# Revision: 0
# Processed by: cddbd v1.5.1PL2 Copyright (c) Steve Scherf et al.
# Submitted via: Collectorz.com_Music_Collector 6.11
#
DISCID=eb0b240f
DTITLE=Various Artist - Blues Serie Gold [CD2)
DYEAR=2004
DGENRE=Blues
TTITLE0=Jelly Roll Morton - Jelly Roll Morton-Dead Man Blues
TTITLE1=Clarence Frogman Henry - Clarence Frogman Henry-Ain't Got No Home
TTITLE2=John Lee Hooker - John Lee Hooker-I'm So Excited
TTITLE3=Memphis Slim - Memphis Slim-Worried Life Blues
TTITLE4=Muddy Waters - Muddy Waters-Honey Bee
TTITLE5=John Mayall - John Mayall-Road Show
TTITLE6=Robert Johnson - Robert Johnson-Rambling On My Mind
TTITLE7=B.B. King - B.B. King-The Thrill Is Gone
TTITLE8=John Lee Hooker - John Lee Hooker-Boom Boom
TTITLE9=Charles Brown - Charles Brown-Big Legged Woman
TTITLE10=Johnny Otis - Johnny Otis-Harlem Nocturne
TTITLE11=Mississipi Fred Mc Dowell - Mississipi Fred Mc Dowell-You Ain't Gonna Worry My Life Anymore
TTITLE12=Buddy Guy-First Time I Meet The Blues
TTITLE13=Lightnin' Hopkins - Lightnin' Hopkins-Have You Ever Loved A Woman
TTITLE14=Jimmy Reed - Jimmy Reed-Shame Shame Shame
EXTD=
EXTT0=
EXTT1=
EXTT2=
EXTT3=
EXTT4=
EXTT5=
EXTT6=
EXTT7=
EXTT8=
EXTT9=
EXTT10=
EXTT11=
EXTT12=
EXTT13=
EXTT14=
PLAYORDER=
